<svg width="201" height="66" viewBox="0 0 201 66" fill="none" xmlns="http://www.w3.org/2000/svg">
<path fill-rule="evenodd" clip-rule="evenodd" d="M29.346 13.9156C29.4947 14.7092 29.8646 15.9872 30.1701 16.7524C30.4756 17.5217 30.548 18.1484 30.3269 18.1484C29.7239 18.1484 29.8405 20.5498 30.5319 22.2226C30.8696 23.0366 31.9952 24.6239 33.0404 25.7513C35.6252 28.5515 35.8664 29.9679 34.367 33.6757C33.7559 35.1898 35.0021 34.388 35.8383 32.7314C37.4222 29.5894 36.8393 27.0741 33.8966 24.3431C32.566 23.1058 31.8143 21.958 31.3841 20.5091L30.7691 18.4456L31.7218 19.2474C35.8785 22.7517 37.9649 25.8978 37.9448 28.641C37.9367 29.7603 37.6473 30.7656 36.0875 35.0677C35.8705 35.6619 36.1117 35.5316 36.8795 34.6362C38.3428 32.9309 39.396 29.2393 39.0664 26.9805C38.8533 25.5112 38.8935 25.3565 39.3035 26.0566C40.0553 27.3345 39.8905 30.1347 38.9377 32.3122C38.4674 33.3867 36.8714 35.6863 35.3921 37.4283L32.7027 40.5907L32.2082 37.3632C31.4726 32.5402 30.8615 31.6936 27.5008 30.8226L25.4788 30.2976L25.5873 27.823C25.6436 26.4636 25.8044 25.1652 25.9411 24.9414C26.0777 24.7175 25.9813 24.2779 25.724 23.9645C25.3622 23.525 25.5471 23.2726 26.5521 22.8534C28.0918 22.2063 28.8636 20.8143 29.2214 18.0385C29.5792 15.2628 28.8395 15.4378 28.0114 18.3235C27.2878 20.855 26.7853 21.4533 24.9803 21.9702C24.2285 22.1819 23.8627 22.5319 23.9873 22.9023C24.0959 23.2279 24.2004 24.4041 24.2165 25.5152C24.2366 26.6264 24.3813 27.6683 24.5421 27.8311C24.7029 27.9939 24.6305 28.3765 24.3853 28.6777C24.1401 28.9829 23.9954 29.6708 24.0718 30.208C24.1803 30.9773 24.7471 31.368 26.729 32.0517C30.0535 33.1954 30.9017 34.5793 30.9098 38.8609C30.9098 41.3681 30.7088 42.2879 29.7802 44.0136C28.5058 46.3783 28.3892 47.5383 29.2334 49.5326C29.8364 50.9531 32.2886 53.5864 32.6625 53.2038C32.7791 53.0858 32.4012 52.341 31.8223 51.5473C29.7118 48.6494 30.6806 45.3079 34.7971 41.2745C36.1197 39.9761 38.2262 37.6318 39.4764 36.0607C41.2975 33.7734 42.3547 32.8942 44.7788 31.6692C46.4431 30.8226 48.1717 30.1347 48.6139 30.1347C49.3214 30.1347 49.3857 30.3423 49.1325 31.7424C48.047 37.705 44.6702 41.6815 39.3719 43.2403C38.1418 43.6026 37.0242 44.0788 36.8875 44.2985C36.582 44.7992 36.6061 44.7992 39.3156 44.2171C41.8321 43.6758 44.4934 42.4426 45.8401 41.1972C46.7003 40.4035 46.8612 40.3954 49.5666 41.0303C51.1224 41.3966 52.8791 41.9501 53.466 42.2635L54.5353 42.8333L52.3605 44.8195C51.1625 45.9103 49.0963 47.3389 47.7737 47.9941C45.6672 49.0361 44.8713 49.1867 41.4543 49.1907C39.2995 49.1907 37.5388 49.3291 37.5388 49.496C37.5388 50.0129 40.5899 50.4809 43.5688 50.4199C45.8843 50.3711 47.0179 50.078 49.5706 48.8448C52.9153 47.2371 57.6669 43.0816 57.3292 42.0559C57.0518 41.2134 53.4137 39.9721 50.3867 39.6872L47.7496 39.4389L48.9556 37.2492C51.1625 33.2402 52.2841 27.5625 50.8691 27.5625C49.7314 27.5625 46.1094 29.1376 44.1115 30.5051C43.0341 31.2418 42.0854 31.8442 42.009 31.8442C41.9326 31.8442 41.7919 30.5011 41.6995 28.8649C41.4824 24.9373 40.1075 22.8941 36.0393 20.4155C32.8072 18.4496 30.946 16.5001 30.552 14.6726C30.4113 14.0214 30.0214 13.2562 29.6877 12.9754C29.1731 12.544 29.1209 12.6864 29.35 13.9074" fill="#F5F5F5"/>
<path fill-rule="evenodd" clip-rule="evenodd" d="M12.5786 28.9587C12.5866 31.0751 13.6117 34.5387 14.9946 37.1273L16.2408 39.4513L13.6238 39.6996C10.7374 39.9723 6.58076 41.2747 6.3476 41.9788C6.15866 42.5527 9.75656 46.0977 12.1887 47.7338C15.7062 50.0986 20.5864 51.0143 24.9481 50.127C27.6536 49.5776 26.7049 49.2031 22.6206 49.2031C19.2598 49.2031 18.3634 49.0444 16.285 48.0554C14.9544 47.4245 12.8962 45.9878 11.7143 44.8685L9.55958 42.8294L10.6128 42.2678C11.1917 41.9584 12.868 41.4253 14.3394 41.0752L17.0127 40.4362L18.7051 41.6247C20.9482 43.1998 22.5201 43.8632 24.9481 44.2499C27.6375 44.6813 27.5049 44.0667 24.7391 43.2487C21.5834 42.3207 18.8659 40.4281 17.3544 38.1204C16.0358 36.1098 14.3313 30.7902 14.8378 30.2774C15.264 29.846 18.3996 31.0344 20.9683 32.6014C22.2507 33.3788 23.4929 33.9526 23.7341 33.8753C24.4255 33.6393 19.8347 30.3344 16.8117 28.8895C13.2138 27.1679 12.5786 27.1801 12.5866 28.9628" fill="#F5F5F5"/>
<path fill-rule="evenodd" clip-rule="evenodd" d="M67.343 32.9757V43.0735H74.1328C78.3739 43.0735 80.9226 42.9107 80.9226 42.6462C80.9226 42.3816 78.8724 42.2148 75.6162 42.2148H70.3098V22.8779H67.339V32.9757H67.343Z" fill="#F5F5F5"/>
<path fill-rule="evenodd" clip-rule="evenodd" d="M123.788 32.9756V43.0734H131.028C135.747 43.0734 138.175 42.9228 138.007 42.646C137.854 42.3937 135.454 42.2146 132.25 42.2146H126.759V33.1913H131.241C134.123 33.1913 135.631 33.0366 135.462 32.7639C135.313 32.5238 133.335 32.3325 130.98 32.3325H126.759V23.7406H132.274C135.671 23.7406 137.794 23.5737 137.794 23.3092C137.794 23.0446 135.176 22.8818 130.787 22.8818H123.784V32.9796L123.788 32.9756Z" fill="#F5F5F5"/>
<path fill-rule="evenodd" clip-rule="evenodd" d="M140.768 23.3051C140.768 23.5737 142.975 23.7365 146.545 23.7365C151.385 23.7365 152.282 23.8383 152.085 24.3511C151.956 24.6889 149.347 28.7671 146.284 33.407C143.221 38.0428 140.612 42.121 140.483 42.4588C140.286 42.9798 141.436 43.0734 147.936 43.0734C157.178 43.0734 158.597 42.296 149.681 42.121L143.739 42.0029L149.279 33.6227C152.326 29.0113 155.1 24.7134 155.445 24.0622L156.072 22.8818H148.422C143.602 22.8818 140.772 23.0406 140.772 23.3092" fill="#F5F5F5"/>
<path fill-rule="evenodd" clip-rule="evenodd" d="M158.593 23.3051C158.593 23.5737 160.8 23.7365 164.37 23.7365C169.21 23.7365 170.11 23.8383 169.909 24.3511C169.785 24.6889 167.172 28.7671 164.108 33.407C161.049 38.0428 158.436 42.121 158.312 42.4588C158.115 42.9798 159.264 43.0734 165.761 43.0734C175.003 43.0734 176.422 42.296 167.505 42.121L161.564 42.0029L167.103 33.6227C170.151 29.0113 172.924 24.7134 173.27 24.0622L173.893 22.8818H166.243C161.427 22.8818 158.593 23.0406 158.593 23.3092" fill="#F5F5F5"/>
<path fill-rule="evenodd" clip-rule="evenodd" d="M118.944 40.1958C117.939 38.5882 116.54 36.6508 115.836 35.8938L114.554 34.5141L116.094 33.7082C119.249 32.0639 120.359 28.7468 118.686 25.971C117.271 23.6226 115.064 22.9022 109.256 22.89L104.267 22.8818V43.0774H107.238V34.4408L109.662 34.571C111.949 34.6931 112.158 34.799 113.312 36.4188C113.983 37.3631 115.137 39.2028 115.872 40.5011C117.127 42.7111 117.328 42.8739 118.988 42.996L120.765 43.1263L118.94 40.1999L118.944 40.1958ZM110.462 33.6227H107.233V23.7406H110.015C113.259 23.7406 115.004 24.4976 115.929 26.3047C117.042 28.4863 116.769 30.505 115.129 32.1616C113.742 33.5698 113.565 33.6227 110.462 33.6227Z" fill="#F5F5F5"/>
<path fill-rule="evenodd" clip-rule="evenodd" d="M100.202 40.6031C99.6075 39.2478 97.6538 34.7056 95.8569 30.5135C92.4479 22.5524 91.7726 21.7099 90.7073 24.0624C89.4289 26.8789 82.619 42.7277 82.619 42.8946C82.619 42.9963 82.824 43.0777 83.0693 43.0777C83.3145 43.0777 84.0823 41.8201 84.7737 40.2857L86.024 37.4936H95.8287L97.079 40.2857C98.2689 42.9434 98.4015 43.0777 99.8045 43.0777H101.28L100.198 40.6072L100.202 40.6031ZM86.5265 36.1993L88.6772 31.2461C89.859 28.5232 90.9565 26.4434 91.1133 26.6266C91.2701 26.8138 91.7967 27.929 92.2871 29.1134C92.7776 30.2937 93.666 32.3735 94.2609 33.7329L95.3463 36.2034H86.5305L86.5265 36.1993Z" fill="#F5F5F5"/>
<path fill-rule="evenodd" clip-rule="evenodd" d="M193.575 40.6031C192.98 39.2478 191.026 34.7056 189.229 30.5135C185.82 22.5524 185.145 21.7099 184.08 24.0624C182.801 26.8789 175.992 42.7277 175.992 42.8946C175.992 42.9963 176.197 43.0777 176.442 43.0777C176.687 43.0777 177.459 41.8201 178.146 40.2857L179.397 37.4936H189.201L190.452 40.2857C191.641 42.9434 191.774 43.0777 193.177 43.0777H194.656L193.575 40.6072V40.6031ZM179.899 36.1993L182.05 31.2461C183.232 28.5232 184.329 26.4434 184.486 26.6266C184.643 26.8138 185.169 27.929 185.66 29.1134C186.15 30.2937 187.039 32.3735 187.633 33.7329L188.719 36.2034H179.903L179.899 36.1993Z" fill="#F5F5F5"/>
</svg>
