<svg width="27" height="27" viewBox="0 0 27 27" fill="none" xmlns="http://www.w3.org/2000/svg">
<path fill-rule="evenodd" clip-rule="evenodd" d="M8.35749 8.35749C9.62308 7.0919 11.3396 6.3809 13.1294 6.3809C14.9192 6.3809 16.6357 7.0919 17.9013 8.35749C19.1669 9.62309 19.8779 11.3396 19.8779 13.1294C19.8779 14.9192 19.1669 16.6357 17.9013 17.9013C16.6357 19.1669 14.9192 19.8779 13.1294 19.8779C11.3396 19.8779 9.62308 19.1669 8.35749 17.9013C7.0919 16.6357 6.3809 14.9192 6.3809 13.1294C6.3809 11.3396 7.0919 9.62309 8.35749 8.35749ZM11.4529 17.1768C11.9844 17.3969 12.5541 17.5103 13.1294 17.5103C14.2913 17.5103 15.4056 17.0487 16.2271 16.2271C17.0487 15.4056 17.5103 14.2913 17.5103 13.1294C17.5103 11.9675 17.0487 10.8533 16.2271 10.0317C15.4056 9.21012 14.2913 8.74857 13.1294 8.74857C12.5541 8.74857 11.9844 8.86188 11.4529 9.08204C10.9214 9.3022 10.4385 9.62489 10.0317 10.0317C9.62489 10.4385 9.3022 10.9214 9.08204 11.4529C8.86188 11.9844 8.74856 12.5541 8.74856 13.1294C8.74856 13.7047 8.86188 14.2744 9.08204 14.8059C9.3022 15.3374 9.62489 15.8203 10.0317 16.2271C10.4385 16.6339 10.9214 16.9566 11.4529 17.1768Z" fill="white"/>
<path d="M21.374 7.38635C21.6731 7.08719 21.8412 6.68144 21.8412 6.25836C21.8412 5.83528 21.6731 5.42953 21.374 5.13036C21.0748 4.8312 20.6691 4.66313 20.246 4.66313C19.8229 4.66313 19.4172 4.8312 19.118 5.13036C18.8188 5.42953 18.6508 5.83528 18.6508 6.25836C18.6508 6.68144 18.8188 7.08719 19.118 7.38635C19.4172 7.68551 19.8229 7.85358 20.246 7.85358C20.6691 7.85358 21.0748 7.68551 21.374 7.38635Z" fill="white"/>
<path fill-rule="evenodd" clip-rule="evenodd" d="M7.71659 0.0787763C9.11706 0.01488 9.56346 0 13.1294 0C16.6962 0 17.1418 0.0157551 18.5414 0.0787763C19.9392 0.142673 20.895 0.365873 21.7301 0.688856C22.6058 1.01872 23.3991 1.53546 24.0548 2.20312C24.7227 2.85899 25.2395 3.65266 25.5691 4.52877C25.8938 5.3638 26.1162 6.31875 26.18 7.71659C26.2439 9.11706 26.2588 9.56346 26.2588 13.1294C26.2588 16.6954 26.2439 17.1418 26.18 18.5422C26.1162 19.9401 25.8938 20.895 25.57 21.7301C25.2401 22.6058 24.7234 23.3991 24.0557 24.0548C23.3992 24.7236 22.6053 25.24 21.7301 25.5691C20.895 25.8938 19.9401 26.1162 18.5422 26.18C17.1418 26.2439 16.6954 26.2588 13.1294 26.2588C9.56346 26.2588 9.11706 26.2439 7.71659 26.18C6.31875 26.1162 5.3638 25.8938 4.52877 25.57C3.65305 25.2401 2.85972 24.7233 2.20399 24.0557C1.53527 23.3992 1.01884 22.6053 0.689732 21.7301C0.364998 20.895 0.142673 19.9401 0.0787763 18.5422C0.01488 17.1418 0 16.6962 0 13.1294C0 9.56259 0.0157551 9.11706 0.0787763 7.71747C0.142673 6.31962 0.365873 5.3638 0.688856 4.52877C1.01872 3.65304 1.53546 2.8597 2.20312 2.20399C2.85959 1.53527 3.65348 1.01884 4.52877 0.689732C5.3638 0.364998 6.31875 0.142673 7.71659 0.0787763ZM18.4354 2.44207C17.0507 2.37905 16.635 2.36592 13.1294 2.36592C9.62386 2.36592 9.20809 2.37905 7.82338 2.44207C6.5437 2.50072 5.84872 2.71429 5.38568 2.8946C4.81535 3.10465 4.29939 3.43994 3.8758 3.8758C3.41715 4.33533 3.1318 4.77298 2.8946 5.38568C2.71341 5.84872 2.50072 6.5437 2.44207 7.82338C2.37905 9.20809 2.36592 9.62386 2.36592 13.1294C2.36592 16.635 2.37905 17.0507 2.44207 18.4354C2.50072 19.7151 2.71429 20.4101 2.8946 20.8731C3.10478 21.4434 3.44006 21.9593 3.8758 22.383C4.29945 22.8188 4.81539 23.1541 5.38568 23.3642C5.84872 23.5454 6.5437 23.7581 7.82338 23.8168C9.20809 23.8798 9.62298 23.8929 13.1294 23.8929C16.6358 23.8929 17.0507 23.8798 18.4354 23.8168C19.7151 23.7581 20.4101 23.5445 20.8731 23.3642C21.4435 23.1542 21.9594 22.8189 22.383 22.383C22.8188 21.9594 23.1541 21.4434 23.3642 20.8731C23.5454 20.4101 23.7581 19.7151 23.8168 18.4354C23.8798 17.0507 23.8929 16.635 23.8929 13.1294C23.8929 9.62386 23.8798 9.20809 23.8168 7.82338C23.7581 6.5437 23.5445 5.84872 23.3642 5.38568C23.127 4.77298 22.8426 4.33533 22.383 3.8758C21.9235 3.41715 21.4858 3.1318 20.8731 2.8946C20.4101 2.71341 19.7151 2.50072 18.4354 2.44207Z" fill="white"/>
</svg>
